<svg version="1.1" id="Layer_1" xmlns="http://www.w3.org/2000/svg" xmlns:xlink="http://www.w3.org/1999/xlink" x="0px" y="0px"
	 width="100%" viewBox="0 0 500 500" enable-background="new 0 0 500 500" xml:space="preserve">
<path fill="#FFFFFF" opacity="1.000000" stroke="none" 
	d="
M243.000000,501.000000 
	C162.000015,501.000000 81.500038,501.000000 1.000043,501.000000 
	C1.000029,334.333405 1.000029,167.666779 1.000014,1.000133 
	C167.666565,1.000088 334.333130,1.000088 500.999756,1.000044 
	C500.999847,167.666519 500.999847,334.333038 500.999939,500.999786 
	C415.166656,501.000000 329.333344,501.000000 243.000000,501.000000 
M303.972321,177.826294 
	C306.083466,174.501816 305.196442,172.342484 301.450165,171.248596 
	C299.230896,170.600571 297.027740,169.897247 294.818787,169.214111 
	C284.257111,165.947922 274.503418,160.063995 262.527985,161.834351 
	C251.683975,163.437424 240.607346,163.416321 229.651352,164.328278 
	C220.922363,165.054871 212.234467,166.282593 203.503616,166.977448 
	C189.004715,168.131378 174.486404,169.042297 159.975388,170.042786 
	C154.520599,170.418884 149.051819,170.635391 143.609482,171.140625 
	C130.615616,172.346909 117.644791,173.818604 104.639488,174.872604 
	C101.193588,175.151855 99.951653,176.307465 100.000938,179.697815 
	C100.131721,188.694901 100.133240,197.697037 99.950302,206.692368 
	C99.919991,208.183212 99.098473,210.402863 97.964851,211.000793 
	C92.269409,214.004898 86.527145,217.124908 80.446014,219.122681 
	C76.250023,220.501114 75.041016,222.720825 75.045540,226.587509 
	C75.074356,251.251434 74.953041,275.916565 75.220573,300.577637 
	C75.248421,303.145416 77.038353,306.082825 78.816223,308.158966 
	C82.142082,312.042755 85.940163,315.553040 89.761200,318.973602 
	C94.044449,322.807953 98.570869,326.370667 103.282295,330.645966 
	C106.490074,333.451385 109.697853,336.256836 113.184326,339.588867 
	C113.819496,340.015076 114.454659,340.441254 115.776115,340.980438 
	C116.846069,340.755371 117.916031,340.530334 119.844940,340.203522 
	C147.224915,335.243286 174.604218,330.279358 201.985153,325.324432 
	C215.014465,322.966614 228.046875,320.625946 241.635849,318.749878 
	C242.421417,320.119415 243.812469,321.457825 243.884705,322.864014 
	C244.155411,328.132812 243.959549,333.424225 244.029907,338.705933 
	C244.042191,339.627594 244.495071,340.543365 244.744461,341.461853 
	C245.269379,341.399139 245.794296,341.336426 246.319199,341.273712 
	C245.913269,333.312408 245.507339,325.351105 245.809891,317.187592 
	C246.544449,317.142548 247.279022,317.097534 248.399414,317.530457 
	C249.284698,317.105072 250.169983,316.679688 251.811356,316.034027 
	C253.861282,315.741089 255.911224,315.448120 257.969025,316.067047 
	C257.969025,324.311981 257.969025,332.556915 257.969025,340.801849 
	C258.310883,340.796936 258.652740,340.792053 258.994598,340.787140 
	C258.994598,332.185913 258.994598,323.584656 259.763733,314.789215 
	C285.102051,310.139862 310.438263,305.479065 335.779572,300.846039 
	C348.192169,298.576691 360.614166,296.358978 373.522797,294.705383 
	C374.013580,296.345673 374.913788,297.981995 374.929840,299.626923 
	C375.049866,311.925629 374.982300,324.226105 375.010590,336.525940 
	C375.014374,338.160217 375.227264,339.794037 375.343323,341.428070 
	C375.890320,341.391449 376.437286,341.354858 376.984283,341.318237 
	C376.984283,339.781433 376.984314,338.244598 376.984314,336.707794 
	C376.984344,325.571411 377.048950,314.434387 376.944458,303.298981 
	C376.913666,300.014557 376.404602,296.734589 376.817261,293.236115 
	C377.549377,293.174347 378.281525,293.112579 379.412659,293.545380 
	C380.609589,293.026764 381.806488,292.508118 383.740845,291.845459 
	C384.741394,291.844666 385.741943,291.843903 387.418091,291.967712 
	C388.306854,291.517914 389.195618,291.068115 390.894867,290.408966 
	C392.287140,290.355591 393.679413,290.302216 395.401978,290.626648 
	C395.959961,290.212036 396.517944,289.797394 397.847504,289.170471 
	C398.913269,289.168549 399.979065,289.166595 401.369659,289.569733 
	C401.936554,289.160187 402.503479,288.750641 403.780365,288.099976 
	C404.527100,288.092407 405.273804,288.084839 406.473267,288.582275 
	C407.988922,288.021973 409.504608,287.461670 411.747375,286.788422 
	C412.727325,286.794922 413.707306,286.801453 415.463196,286.956390 
	C416.328857,286.547424 417.194519,286.138489 418.834961,285.619965 
	C421.398285,285.081421 423.961609,284.542877 426.554749,283.998047 
	C426.554749,258.754059 426.554749,233.963562 426.826385,208.389099 
	C427.207306,202.321182 422.321381,203.742035 418.896881,202.229797 
	C417.268890,201.511749 415.640900,200.793701 413.255371,199.936661 
	C399.124908,194.492523 385.039459,188.926956 370.841492,183.664902 
	C365.279510,181.603485 359.667786,180.092896 353.391754,181.625565 
	C345.250854,183.613632 336.851379,184.518173 328.605255,186.107346 
	C320.698669,187.631119 312.845856,189.433731 304.278290,191.059082 
	C303.587769,190.999268 302.897217,190.939453 302.240448,190.074387 
	C302.580658,186.051239 302.920868,182.028076 303.972321,177.826294 
M272.990234,325.532288 
	C272.990234,322.107483 272.990234,318.682709 272.990234,315.257904 
	C272.754761,315.273315 272.519287,315.288727 272.283813,315.304138 
	C272.283813,323.836212 272.283813,332.368317 272.283813,340.900391 
	C272.519287,340.902527 272.754730,340.904663 272.990204,340.906799 
	C272.990204,336.110565 272.990204,331.314362 272.990234,325.532288 
z"/>
<path fill="#988483" opacity="1.000000" stroke="none" 
	d="
M414.687256,286.807983 
	C413.707306,286.801453 412.727325,286.794922 411.148071,286.645142 
	C409.039337,287.027008 407.529938,287.552124 406.020538,288.077240 
	C405.273804,288.084839 404.527100,288.092407 403.127686,288.143158 
	C401.998260,288.512451 401.521545,288.838562 401.044830,289.164673 
	C399.979065,289.166595 398.913269,289.168549 397.161072,289.200256 
	C396.006958,289.569611 395.539337,289.909210 395.071686,290.248810 
	C393.679413,290.302216 392.287140,290.355591 390.177002,290.359009 
	C388.553619,290.820435 387.648041,291.331787 386.742493,291.843140 
	C385.741943,291.843903 384.741394,291.844666 383.171173,291.721863 
	C381.405548,292.082458 380.209595,292.566620 379.013641,293.050812 
	C378.281525,293.112579 377.549377,293.174347 376.133759,293.256989 
	C374.644135,293.557892 373.838013,293.837891 373.031921,294.117889 
	C360.614166,296.358978 348.192169,298.576691 335.779572,300.846039 
	C310.438263,305.479065 285.102051,310.139862 259.110962,314.869995 
	C258.292542,315.018890 258.126831,315.087006 257.961151,315.155151 
	C255.911224,315.448120 253.861282,315.741089 251.102386,316.091614 
	C249.600128,316.450287 248.806854,316.751373 248.013580,317.052490 
	C247.279022,317.097534 246.544449,317.142548 245.092224,317.212189 
	C243.275650,317.583679 242.176773,317.930603 241.077881,318.277496 
	C228.046875,320.625946 215.014465,322.966614 201.985153,325.324432 
	C174.604218,330.279358 147.224915,335.243286 119.421021,339.758118 
	C118.647400,317.736145 118.306694,296.159393 117.925934,274.583344 
	C117.902840,273.274719 117.411636,271.973816 117.393250,270.665771 
	C117.290192,263.332520 115.055466,255.728119 120.347519,248.993744 
	C121.119064,248.924622 121.558479,248.868362 122.313019,248.819916 
	C123.130142,248.240189 123.632149,247.652649 124.582977,247.070816 
	C134.020493,246.340759 143.009186,245.604996 152.332977,244.900055 
	C153.444153,244.617737 154.220245,244.304596 155.425247,243.998627 
	C157.568008,243.949310 159.281860,243.892838 161.291870,243.859528 
	C162.049210,243.567398 162.510406,243.252106 163.389420,242.945435 
	C169.062805,242.302292 174.315704,241.628021 179.574509,241.003525 
	C189.761368,239.793823 199.961700,238.692139 210.137573,237.397171 
	C221.137451,235.997345 232.109100,234.376602 243.105515,232.948135 
	C252.295792,231.754303 261.520477,230.818100 270.700348,229.553177 
	C283.471863,227.793350 296.196686,225.687393 308.978149,224.008942 
	C317.834930,222.845840 326.767914,222.274368 335.640900,221.220276 
	C346.486603,219.931793 357.304230,218.407333 368.135834,216.998978 
	C380.271240,215.421097 392.412872,213.890137 404.543732,212.278397 
	C411.888611,211.302505 419.218262,210.212067 426.554749,209.173065 
	C426.554749,233.963562 426.554749,258.754059 426.554749,283.998047 
	C423.961609,284.542877 421.398285,285.081421 418.207214,285.496368 
	C416.615417,285.851166 415.651337,286.329590 414.687256,286.807983 
z"/>
<path fill="#D1D1D1" opacity="1.000000" stroke="none" 
	d="
M414.012909,200.075653 
	C415.640900,200.793701 417.268890,201.511749 418.755859,202.887634 
	C417.565247,204.013641 416.557251,204.723358 415.459564,204.912338 
	C405.387238,206.646530 395.304993,208.325500 385.214325,209.950226 
	C376.115417,211.415253 367.011261,212.853317 357.891663,214.181274 
	C353.489349,214.822311 349.037567,215.115997 344.623413,215.684998 
	C336.437775,216.740173 328.281677,218.051392 320.079132,218.941025 
	C311.538361,219.867371 302.910950,220.075623 294.403931,221.214294 
	C279.058929,223.268204 263.779510,225.808517 248.463699,228.085358 
	C244.226013,228.715332 239.946411,229.059982 235.703903,229.661591 
	C225.765472,231.070953 215.850876,232.654388 205.901642,233.979752 
	C198.216095,235.003555 190.483887,235.671997 182.788376,236.627060 
	C174.274384,237.683670 165.785019,238.937881 157.273224,240.013504 
	C145.811554,241.461838 134.303543,242.598419 122.898125,244.394135 
	C120.399887,244.787460 118.250061,247.393661 115.640343,249.221283 
	C114.944550,250.369308 114.208199,251.275085 114.203514,252.184647 
	C114.145569,263.452148 113.972115,274.726318 114.282784,285.986237 
	C114.550903,295.704102 115.720657,305.400085 115.898064,315.116547 
	C116.054649,323.692413 115.391197,332.283234 115.089828,340.867462 
	C114.454659,340.441254 113.819496,340.015076 113.079788,338.851257 
	C112.642776,313.220703 112.352310,288.327118 111.941200,263.435516 
	C111.862183,258.651459 111.742592,253.785370 110.778267,249.136215 
	C110.346504,247.054657 108.025253,244.180618 106.140495,243.810623 
	C100.838959,242.769882 97.282440,240.028610 94.178635,235.842819 
	C92.236244,233.223297 89.442459,231.235107 86.984680,228.616699 
	C86.123695,225.994522 82.429657,223.971039 85.239670,221.419022 
	C87.224869,219.616104 90.296219,218.481873 93.019493,218.140472 
	C97.280579,217.606277 101.657372,217.994995 106.399208,217.995361 
	C110.031830,218.064911 113.375610,218.352646 114.431015,213.921082 
	C116.279915,214.208969 117.775772,214.856567 119.172928,214.687668 
	C128.439240,213.567566 137.660767,212.039215 146.942947,211.098450 
	C156.640305,210.115631 166.406158,209.819534 176.111053,208.897079 
	C185.275925,208.025955 194.398026,206.709732 203.544159,205.633698 
	C206.822891,205.247971 210.127518,205.075867 213.401901,204.660858 
	C222.699753,203.482452 231.980881,202.169937 241.283295,201.030212 
	C245.873215,200.467865 250.502457,200.234344 255.101837,199.739777 
	C266.362213,198.528976 277.627808,197.351532 288.865967,195.956726 
	C293.666107,195.360977 299.020508,195.863754 302.206696,190.879623 
	C302.897217,190.939453 303.587769,190.999268 304.650482,191.489136 
	C306.444336,192.614792 307.961456,194.057404 309.272858,193.889893 
	C321.725037,192.299347 334.368317,191.359406 346.506165,188.390686 
	C358.691101,185.410446 369.445587,189.024719 380.479553,192.397797 
	C390.083527,195.333755 399.524170,198.805038 409.135162,201.715546 
	C410.472870,202.120667 412.373077,200.668213 414.012909,200.075653 
z"/>
<path fill="#F3E9E4" opacity="1.000000" stroke="none" 
	d="
M87.030685,228.963638 
	C89.442459,231.235107 92.236244,233.223297 94.178635,235.842819 
	C97.282440,240.028610 100.838959,242.769882 106.140495,243.810623 
	C108.025253,244.180618 110.346504,247.054657 110.778267,249.136215 
	C111.742592,253.785370 111.862183,258.651459 111.941200,263.435516 
	C112.352310,288.327118 112.642776,313.220703 112.940445,338.587952 
	C109.697853,336.256836 106.490074,333.451385 103.140663,329.915161 
	C103.564056,324.281891 102.196655,320.413574 97.543533,317.943054 
	C94.926521,316.553528 92.355247,314.927216 90.132675,312.984955 
	C87.562881,310.739288 84.035492,308.365814 83.317047,305.456757 
	C81.235825,297.029755 79.946060,288.346893 79.088875,279.690857 
	C77.449013,263.131256 80.383202,246.781433 82.184402,230.394608 
	C82.217003,230.097992 82.492989,229.828110 82.832787,229.237396 
	C84.102287,229.154617 85.566483,229.059128 87.030685,228.963638 
z"/>
<path fill="#EADCD0" opacity="1.000000" stroke="none" 
	d="
M86.984680,228.616699 
	C85.566483,229.059128 84.102287,229.154617 82.832787,229.237396 
	C82.492989,229.828110 82.217003,230.097992 82.184402,230.394608 
	C80.383202,246.781433 77.449013,263.131256 79.088875,279.690857 
	C79.946060,288.346893 81.235825,297.029755 83.317047,305.456757 
	C84.035492,308.365814 87.562881,310.739288 90.132675,312.984955 
	C92.355247,314.927216 94.926521,316.553528 97.543533,317.943054 
	C102.196655,320.413574 103.564056,324.281891 102.995262,329.617950 
	C98.570869,326.370667 94.044449,322.807953 89.761200,318.973602 
	C85.940163,315.553040 82.142082,312.042755 78.816223,308.158966 
	C77.038353,306.082825 75.248421,303.145416 75.220573,300.577637 
	C74.953041,275.916565 75.074356,251.251434 75.045540,226.587509 
	C75.041016,222.720825 76.250023,220.501114 80.446014,219.122681 
	C86.527145,217.124908 92.269409,214.004898 97.964851,211.000793 
	C99.098473,210.402863 99.919991,208.183212 99.950302,206.692368 
	C100.133240,197.697037 100.131721,188.694901 100.000938,179.697815 
	C99.951653,176.307465 101.193588,175.151855 104.639488,174.872604 
	C117.644791,173.818604 130.615616,172.346909 143.609482,171.140625 
	C149.051819,170.635391 154.520599,170.418884 159.975388,170.042786 
	C174.486404,169.042297 189.004715,168.131378 203.503616,166.977448 
	C212.234467,166.282593 220.922363,165.054871 229.651352,164.328278 
	C240.607346,163.416321 251.683975,163.437424 262.527985,161.834351 
	C274.503418,160.063995 284.257111,165.947922 294.818787,169.214111 
	C297.027740,169.897247 299.230896,170.600571 301.450165,171.248596 
	C305.196442,172.342484 306.083466,174.501816 303.267029,177.812286 
	C300.714630,176.830917 298.867523,175.863541 296.853699,174.604095 
	C295.463074,173.869598 294.239197,173.427200 292.950806,172.627502 
	C282.689850,165.931778 271.334076,166.526779 260.133209,167.247665 
	C245.948151,168.160629 231.817673,169.894714 217.639160,170.943665 
	C205.246307,171.860504 192.816925,172.273392 180.408325,172.989761 
	C157.749313,174.297928 135.091827,175.635223 112.439499,177.052963 
	C109.986366,177.206512 107.572426,177.975357 105.138489,178.449478 
	C102.148239,179.031921 101.452385,180.828079 102.318634,183.569397 
	C102.664574,184.664139 102.791565,185.828049 102.717911,187.257904 
	C102.285583,193.855927 102.084816,200.156799 102.107071,206.456863 
	C102.109909,207.259888 103.277061,208.058777 103.904816,208.859573 
	C104.595589,208.127731 105.698822,207.496048 105.905144,206.646530 
	C106.761024,203.122574 107.346054,199.532837 108.284119,196.169540 
	C109.079941,197.272766 109.622169,198.173691 110.146805,199.507996 
	C111.095551,204.287079 112.061890,208.632812 112.741447,213.176758 
	C110.298157,214.914261 108.141647,216.453506 105.985146,217.992767 
	C101.657372,217.994995 97.280579,217.606277 93.019493,218.140472 
	C90.296219,218.481873 87.224869,219.616104 85.239670,221.419022 
	C82.429657,223.971039 86.123695,225.994522 86.984680,228.616699 
z"/>
<path fill="#A7A4A8" opacity="1.000000" stroke="none" 
	d="
M113.028229,212.978531 
	C112.061890,208.632812 111.095551,204.287079 110.512657,199.396576 
	C111.614395,195.575165 112.332680,192.298538 113.443573,189.007858 
	C119.122879,188.000626 124.372810,186.484512 129.702972,186.109833 
	C147.527298,184.856857 165.375244,183.907333 183.223831,183.041702 
	C199.935776,182.231186 216.665482,181.786819 233.377472,180.976959 
	C251.387802,180.104172 269.395294,179.119125 287.382538,177.872757 
	C290.648224,177.646469 293.810425,175.926575 297.020386,174.896179 
	C298.867523,175.863541 300.714630,176.830917 302.911438,177.901611 
	C302.920868,182.028076 302.580658,186.051239 302.223572,190.477005 
	C299.020508,195.863754 293.666107,195.360977 288.865967,195.956726 
	C277.627808,197.351532 266.362213,198.528976 255.101837,199.739777 
	C250.502457,200.234344 245.873215,200.467865 241.283295,201.030212 
	C231.980881,202.169937 222.699753,203.482452 213.401901,204.660858 
	C210.127518,205.075867 206.822891,205.247971 203.544159,205.633698 
	C194.398026,206.709732 185.275925,208.025955 176.111053,208.897079 
	C166.406158,209.819534 156.640305,210.115631 146.942947,211.098450 
	C137.660767,212.039215 128.439240,213.567566 119.172928,214.687668 
	C117.775772,214.856567 116.279915,214.208969 114.317535,213.715179 
	C113.604080,213.232864 113.345047,213.061935 113.028229,212.978531 
M300.012573,187.074799 
	C299.937805,180.223770 299.409058,179.710022 292.539154,179.982315 
	C284.415466,180.304321 276.292603,180.648788 268.169586,180.987976 
	C267.504822,181.015747 266.839417,181.057922 266.177765,181.126541 
	C253.840775,182.406036 241.531448,184.202896 229.161591,184.858627 
	C208.601181,185.948547 187.998764,186.222412 167.420242,187.003311 
	C154.326630,187.500168 141.243149,188.825607 128.157104,188.799225 
	C115.455635,188.773621 114.302673,192.321014 114.956482,202.966629 
	C114.987068,203.464722 114.980759,203.967056 114.959541,204.466049 
	C114.786392,208.539444 116.852028,210.356033 120.782562,209.992020 
	C127.869514,209.335663 134.948807,208.590622 142.024658,207.821518 
	C159.614960,205.909515 177.191605,203.866119 194.793076,202.064468 
	C206.647110,200.851135 218.551056,200.122711 230.402603,198.888611 
	C251.293274,196.713242 272.174164,194.424896 293.020416,191.867889 
	C295.438904,191.571228 297.611847,189.272522 300.012573,187.074799 
z"/>
<path fill="#AFAEB2" opacity="1.000000" stroke="none" 
	d="
M115.939789,248.980804 
	C118.250061,247.393661 120.399887,244.787460 122.898125,244.394135 
	C134.303543,242.598419 145.811554,241.461838 157.273224,240.013504 
	C165.785019,238.937881 174.274384,237.683670 182.788376,236.627060 
	C190.483887,235.671997 198.216095,235.003555 205.901642,233.979752 
	C215.850876,232.654388 225.765472,231.070953 235.703903,229.661591 
	C239.946411,229.059982 244.226013,228.715332 248.463699,228.085358 
	C263.779510,225.808517 279.058929,223.268204 294.403931,221.214294 
	C302.910950,220.075623 311.538361,219.867371 320.079132,218.941025 
	C328.281677,218.051392 336.437775,216.740173 344.623413,215.684998 
	C349.037567,215.115997 353.489349,214.822311 357.891663,214.181274 
	C367.011261,212.853317 376.115417,211.415253 385.214325,209.950226 
	C395.304993,208.325500 405.387238,206.646530 415.459564,204.912338 
	C416.557251,204.723358 417.565247,204.013641 418.820007,203.223969 
	C422.321381,203.742035 427.207306,202.321182 426.690552,208.781097 
	C419.218262,210.212067 411.888611,211.302505 404.543732,212.278397 
	C392.412872,213.890137 380.271240,215.421097 368.135834,216.998978 
	C357.304230,218.407333 346.486603,219.931793 335.640900,221.220276 
	C326.767914,222.274368 317.834930,222.845840 308.978149,224.008942 
	C296.196686,225.687393 283.471863,227.793350 270.700348,229.553177 
	C261.520477,230.818100 252.295792,231.754303 243.105515,232.948135 
	C232.109100,234.376602 221.137451,235.997345 210.137573,237.397171 
	C199.961700,238.692139 189.761368,239.793823 179.574509,241.003525 
	C174.315704,241.628021 169.062805,242.302292 163.223450,242.731079 
	C162.091675,242.950851 161.543701,243.393616 160.995728,243.836365 
	C159.281860,243.892838 157.568008,243.949310 155.230591,243.747375 
	C153.737305,243.949036 152.867584,244.409134 151.997879,244.869232 
	C143.009186,245.604996 134.020493,246.340759 124.258408,247.078339 
	C122.989304,247.657486 122.493599,248.234802 121.997894,248.812103 
	C121.558479,248.868362 121.119064,248.924622 119.940521,248.990784 
	C118.114189,248.994049 117.026985,248.987427 115.939789,248.980804 
z"/>
<path fill="#E9DBCE" opacity="1.000000" stroke="none" 
	d="
M413.634155,200.006165 
	C412.373077,200.668213 410.472870,202.120667 409.135162,201.715546 
	C399.524170,198.805038 390.083527,195.333755 380.479553,192.397797 
	C369.445587,189.024719 358.691101,185.410446 346.506165,188.390686 
	C334.368317,191.359406 321.725037,192.299347 309.272858,193.889893 
	C307.961456,194.057404 306.444336,192.614792 304.996033,191.516479 
	C312.845856,189.433731 320.698669,187.631119 328.605255,186.107346 
	C336.851379,184.518173 345.250854,183.613632 353.391754,181.625565 
	C359.667786,180.092896 365.279510,181.603485 370.841492,183.664902 
	C385.039459,188.926956 399.124908,194.492523 413.634155,200.006165 
z"/>
<path fill="#ADACAF" opacity="1.000000" stroke="none" 
	d="
M115.640343,249.221283 
	C117.026985,248.987427 118.114189,248.994049 119.608391,249.003632 
	C115.055466,255.728119 117.290192,263.332520 117.393250,270.665771 
	C117.411636,271.973816 117.902840,273.274719 117.925934,274.583344 
	C118.306694,296.159393 118.647400,317.736145 118.991547,339.809021 
	C117.916031,340.530334 116.846069,340.755371 115.432968,340.923950 
	C115.391197,332.283234 116.054649,323.692413 115.898064,315.116547 
	C115.720657,305.400085 114.550903,295.704102 114.282784,285.986237 
	C113.972115,274.726318 114.145569,263.452148 114.203514,252.184647 
	C114.208199,251.275085 114.944550,250.369308 115.640343,249.221283 
z"/>
<path fill="#EAE7E7" opacity="1.000000" stroke="none" 
	d="
M373.277344,294.411621 
	C373.838013,293.837891 374.644135,293.557892 375.782471,293.365234 
	C376.404602,296.734589 376.913666,300.014557 376.944458,303.298981 
	C377.048950,314.434387 376.984344,325.571411 376.984314,336.707794 
	C376.984314,338.244598 376.984283,339.781433 376.984283,341.318237 
	C376.437286,341.354858 375.890320,341.391449 375.343323,341.428070 
	C375.227264,339.794037 375.014374,338.160217 375.010590,336.525940 
	C374.982300,324.226105 375.049866,311.925629 374.929840,299.626923 
	C374.913788,297.981995 374.013580,296.345673 373.277344,294.411621 
z"/>
<path fill="#EAE7E7" opacity="1.000000" stroke="none" 
	d="
M241.356873,318.513672 
	C242.176773,317.930603 243.275650,317.583679 244.737976,317.313293 
	C245.507339,325.351105 245.913269,333.312408 246.319199,341.273712 
	C245.794296,341.336426 245.269379,341.399139 244.744461,341.461853 
	C244.495071,340.543365 244.042191,339.627594 244.029907,338.705933 
	C243.959549,333.424225 244.155411,328.132812 243.884705,322.864014 
	C243.812469,321.457825 242.421417,320.119415 241.356873,318.513672 
z"/>
<path fill="#F3E9E4" opacity="1.000000" stroke="none" 
	d="
M272.990234,326.025208 
	C272.990204,331.314362 272.990204,336.110565 272.990204,340.906799 
	C272.754730,340.904663 272.519287,340.902527 272.283813,340.900391 
	C272.283813,332.368317 272.283813,323.836212 272.283813,315.304138 
	C272.519287,315.288727 272.754761,315.273315 272.990234,315.257904 
	C272.990234,318.682709 272.990234,322.107483 272.990234,326.025208 
z"/>
<path fill="#EAE7E7" opacity="1.000000" stroke="none" 
	d="
M257.965088,315.611084 
	C258.126831,315.087006 258.292542,315.018890 258.726410,314.967072 
	C258.994598,323.584656 258.994598,332.185913 258.994598,340.787140 
	C258.652740,340.792053 258.310883,340.796936 257.969025,340.801849 
	C257.969025,332.556915 257.969025,324.311981 257.965088,315.611084 
z"/>
<path fill="#EAE7E7" opacity="1.000000" stroke="none" 
	d="
M406.246887,288.329773 
	C407.529938,287.552124 409.039337,287.027008 410.784485,286.701630 
	C409.504608,287.461670 407.988922,288.021973 406.246887,288.329773 
z"/>
<path fill="#EAE7E7" opacity="1.000000" stroke="none" 
	d="
M379.213135,293.298096 
	C380.209595,292.566620 381.405548,292.082458 382.802460,291.793884 
	C381.806488,292.508118 380.609589,293.026764 379.213135,293.298096 
z"/>
<path fill="#EAE7E7" opacity="1.000000" stroke="none" 
	d="
M415.075226,286.882202 
	C415.651337,286.329590 416.615417,285.851166 417.819824,285.551147 
	C417.194519,286.138489 416.328857,286.547424 415.075226,286.882202 
z"/>
<path fill="#EAE7E7" opacity="1.000000" stroke="none" 
	d="
M387.080292,291.905426 
	C387.648041,291.331787 388.553619,290.820435 389.771790,290.463684 
	C389.195618,291.068115 388.306854,291.517914 387.080292,291.905426 
z"/>
<path fill="#EAE7E7" opacity="1.000000" stroke="none" 
	d="
M248.206497,317.291473 
	C248.806854,316.751373 249.600128,316.450287 250.724335,316.201721 
	C250.169983,316.679688 249.284698,317.105072 248.206497,317.291473 
z"/>
<path fill="#EAE7E7" opacity="1.000000" stroke="none" 
	d="
M401.207245,289.367188 
	C401.521545,288.838562 401.998260,288.512451 402.772675,288.263733 
	C402.503479,288.750641 401.936554,289.160187 401.207245,289.367188 
z"/>
<path fill="#EAE7E7" opacity="1.000000" stroke="none" 
	d="
M395.236816,290.437744 
	C395.539337,289.909210 396.006958,289.569611 396.775269,289.306396 
	C396.517944,289.797394 395.959961,290.212036 395.236816,290.437744 
z"/>
<path fill="#ADACAF" opacity="1.000000" stroke="none" 
	d="
M152.332977,244.900055 
	C152.867584,244.409134 153.737305,243.949036 154.801666,243.740204 
	C154.220245,244.304596 153.444153,244.617737 152.332977,244.900055 
z"/>
<path fill="#ADACAF" opacity="1.000000" stroke="none" 
	d="
M122.313019,248.819916 
	C122.493599,248.234802 122.989304,247.657486 123.809578,247.072632 
	C123.632149,247.652649 123.130142,248.240189 122.313019,248.819916 
z"/>
<path fill="#ADACAF" opacity="1.000000" stroke="none" 
	d="
M161.291870,243.859528 
	C161.543701,243.393616 162.091675,242.950851 162.805634,242.722443 
	C162.510406,243.252106 162.049210,243.567398 161.291870,243.859528 
z"/>
<path fill="#D1D1D0" opacity="1.000000" stroke="none" 
	d="
M112.741455,213.176758 
	C113.345047,213.061935 113.604080,213.232864 113.918823,213.697220 
	C113.375610,218.352646 110.031830,218.064911 106.399208,217.995361 
	C108.141647,216.453506 110.298157,214.914261 112.741455,213.176758 
z"/>
<path fill="#D1D1D0" opacity="1.000000" stroke="none" 
	d="
M113.050972,189.021927 
	C112.332680,192.298538 111.614395,195.575165 110.530251,198.963196 
	C109.622169,198.173691 109.079941,197.272766 108.276726,195.745544 
	C107.912308,191.442612 108.848289,187.129318 103.018211,186.960480 
	C102.791565,185.828049 102.664574,184.664139 102.318634,183.569397 
	C101.452385,180.828079 102.148239,179.031921 105.138489,178.449478 
	C107.572426,177.975357 109.986366,177.206512 112.439499,177.052963 
	C135.091827,175.635223 157.749313,174.297928 180.408325,172.989761 
	C192.816925,172.273392 205.246307,171.860504 217.639160,170.943665 
	C231.817673,169.894714 245.948151,168.160629 260.133209,167.247665 
	C271.334076,166.526779 282.689850,165.931778 292.483704,172.645813 
	C285.495544,172.928421 278.881866,172.406708 272.330902,172.838120 
	C261.148865,173.574554 250.018021,175.061707 238.841858,175.925507 
	C233.540848,176.335205 228.165726,175.749634 222.857376,176.107391 
	C205.515869,177.276138 188.202896,178.897003 170.853745,179.914780 
	C154.126907,180.896072 137.363586,181.242996 120.628166,182.100342 
	C116.571556,182.308151 112.374672,183.224747 113.050972,189.021927 
z"/>
<path fill="#B1B1B5" opacity="1.000000" stroke="none" 
	d="
M113.443588,189.007858 
	C112.374672,183.224747 116.571556,182.308151 120.628166,182.100342 
	C137.363586,181.242996 154.126907,180.896072 170.853745,179.914780 
	C188.202896,178.897003 205.515869,177.276138 222.857376,176.107391 
	C228.165726,175.749634 233.540848,176.335205 238.841858,175.925507 
	C250.018021,175.061707 261.148865,173.574554 272.330902,172.838120 
	C278.881866,172.406708 285.495544,172.928421 292.548157,173.003098 
	C294.239197,173.427200 295.463074,173.869598 296.853699,174.604095 
	C293.810425,175.926575 290.648224,177.646469 287.382538,177.872757 
	C269.395294,179.119125 251.387802,180.104172 233.377472,180.976959 
	C216.665482,181.786819 199.935776,182.231186 183.223831,183.041702 
	C165.375244,183.907333 147.527298,184.856857 129.702972,186.109833 
	C124.372810,186.484512 119.122879,188.000626 113.443588,189.007858 
z"/>
<path fill="#F3E9E4" opacity="1.000000" stroke="none" 
	d="
M102.717911,187.257904 
	C108.848289,187.129318 107.912308,191.442612 108.023132,195.543243 
	C107.346054,199.532837 106.761024,203.122574 105.905144,206.646530 
	C105.698822,207.496048 104.595589,208.127731 103.904816,208.859573 
	C103.277061,208.058777 102.109909,207.259888 102.107071,206.456863 
	C102.084816,200.156799 102.285583,193.855927 102.717911,187.257904 
z"/>
<path fill="#988584" opacity="1.000000" stroke="none" 
	d="
M299.955627,187.488403 
	C297.611847,189.272522 295.438904,191.571228 293.020416,191.867889 
	C272.174164,194.424896 251.293274,196.713242 230.402603,198.888611 
	C218.551056,200.122711 206.647110,200.851135 194.793076,202.064468 
	C177.191605,203.866119 159.614960,205.909515 142.024658,207.821518 
	C134.948807,208.590622 127.869514,209.335663 120.782562,209.992020 
	C116.852028,210.356033 114.786392,208.539444 114.959541,204.466049 
	C114.980759,203.967056 114.987068,203.464722 114.956482,202.966629 
	C114.302673,192.321014 115.455635,188.773621 128.157104,188.799225 
	C141.243149,188.825607 154.326630,187.500168 167.420242,187.003311 
	C187.998764,186.222412 208.601181,185.948547 229.161591,184.858627 
	C241.531448,184.202896 253.840775,182.406036 266.177765,181.126541 
	C266.839417,181.057922 267.504822,181.015747 268.169586,180.987976 
	C276.292603,180.648788 284.415466,180.304321 292.539154,179.982315 
	C299.409058,179.710022 299.937805,180.223770 299.955627,187.488403 
z"/>
</svg>